<svg xmlns="http://www.w3.org/2000/svg" width="152.594" height="178.716" viewBox="0 0 152.594 178.716">
  <path id="ic_assignment_24px" d="M138.639,18.872H103.2C99.643,8.506,90.318,1,79.3,1S58.951,8.506,55.391,18.872H19.955C10.63,18.872,3,26.914,3,36.743v125.1c0,9.829,7.63,17.872,16.955,17.872H138.639c9.325,0,16.955-8.042,16.955-17.872V36.743C155.594,26.914,147.964,18.872,138.639,18.872Zm-59.342,0a8.741,8.741,0,0,1,8.477,8.936,8.489,8.489,0,1,1-16.955,0A8.741,8.741,0,0,1,79.3,18.872Zm16.955,125.1H36.91V126.1H96.252Zm25.432-35.743H36.91V90.358h84.774Zm0-35.743H36.91V54.615h84.774Z" transform="translate(-3 -1)" fill="#020f5d"/>
</svg>
