<svg xmlns="http://www.w3.org/2000/svg" width="27.492" height="28" viewBox="0 0 27.492 28">
  <path id="ic_mood_24px" d="M15.732,2A13.868,13.868,0,0,0,2,16,13.868,13.868,0,0,0,15.732,30a13.883,13.883,0,0,0,13.76-14A13.883,13.883,0,0,0,15.732,2Zm.014,25.2a11.1,11.1,0,0,1-11-11.2,11.1,11.1,0,0,1,11-11.2,11.1,11.1,0,0,1,11,11.2A11.1,11.1,0,0,1,15.746,27.2Zm4.811-12.6A2.1,2.1,0,1,0,18.5,12.5,2.078,2.078,0,0,0,20.557,14.6Zm-9.622,0a2.1,2.1,0,1,0-2.062-2.1A2.078,2.078,0,0,0,10.935,14.6Zm4.811,9.1a7.56,7.56,0,0,0,7.024-4.9H8.722A7.56,7.56,0,0,0,15.746,23.7Z" transform="translate(-2 -2)" fill="#020f5d"/>
</svg>
