<?xml version="1.0" standalone="no"?>
<!DOCTYPE svg PUBLIC "-//W3C//DTD SVG 20010904//EN"
 "http://www.w3.org/TR/2001/REC-SVG-20010904/DTD/svg10.dtd">
<svg version="1.0" xmlns="http://www.w3.org/2000/svg"
 width="362.000000pt" height="248.000000pt" viewBox="0 0 362.000000 248.000000"
 preserveAspectRatio="xMidYMid meet">

<g transform="translate(0.000000,248.000000) scale(0.100000,-0.100000)"
fill="#000000" stroke="none">
<path d="M1603 2191 c-463 -58 -844 -108 -847 -111 -2 -3 4 -75 15 -160 27
-224 27 -220 51 -220 17 0 19 4 15 33 -13 69 -38 309 -34 313 2 2 337 45 743
94 406 49 772 94 813 100 41 6 76 8 78 6 4 -4 42 -299 43 -328 0 -14 40 -8 40
5 0 25 -41 342 -46 360 -3 9 -11 17 -17 16 -7 -1 -391 -49 -854 -108z"/>
<path d="M350 1606 c0 -8 45 -122 101 -253 56 -131 103 -244 106 -251 3 -7 17
-12 30 -10 23 3 29 15 65 128 41 131 53 154 61 124 3 -11 22 -72 42 -136 32
-106 38 -118 59 -118 21 0 34 26 130 251 58 138 108 256 109 262 1 8 -17 13
-49 15 l-50 3 -61 -141 c-33 -78 -64 -141 -69 -141 -5 -1 -29 63 -53 141 -43
134 -46 141 -70 138 -22 -3 -29 -16 -70 -140 -25 -75 -49 -139 -52 -143 -4 -3
-34 58 -67 137 l-60 143 -51 3 c-40 2 -51 0 -51 -12z"/>
<path d="M1100 1355 l0 -265 200 0 200 0 0 60 0 60 -145 0 -145 0 0 29 c0 16
-3 36 -6 45 -5 14 11 16 145 16 l151 0 0 60 0 60 -145 0 c-131 0 -145 2 -145
18 0 9 -3 27 -6 40 l-6 22 151 0 151 0 0 60 0 60 -200 0 -200 0 0 -265z"/>
<path d="M1570 1443 c0 -205 8 -234 80 -295 84 -72 202 -72 282 0 72 65 78 87
78 292 l0 181 -47 -3 -48 -3 -5 -165 c-3 -107 -9 -173 -18 -187 -27 -48 -106
-67 -161 -38 -51 26 -61 65 -61 239 l0 156 -50 0 -50 0 0 -177z"/>
<path d="M2087 1614 c-4 -4 -7 -124 -7 -266 l0 -259 53 3 52 3 5 145 5 145 63
-112 64 -113 48 0 49 0 42 78 c23 42 51 93 63 112 l21 35 5 -145 5 -145 50 0
50 0 0 260 0 260 -55 0 -55 0 -85 -152 c-47 -84 -88 -153 -91 -153 -3 0 -43
69 -90 153 l-84 152 -51 3 c-27 2 -53 0 -57 -4z"/>
<path d="M2810 1374 c-56 -136 -105 -256 -108 -266 -4 -17 1 -19 48 -16 l52 3
23 55 23 55 111 3 111 3 26 -61 27 -60 48 0 c36 0 49 4 49 14 0 8 -47 126
-104 263 l-104 248 -49 3 -49 3 -104 -247z m186 21 c13 -32 22 -60 20 -62 -2
-2 -29 -3 -59 -1 l-55 3 25 63 c14 35 30 61 35 60 6 -2 21 -30 34 -63z"/>
<path d="M2780 908 c0 -7 9 -84 20 -172 12 -87 19 -160 17 -162 -2 -2 -262
-36 -578 -74 -316 -38 -682 -83 -814 -99 -151 -19 -242 -26 -246 -20 -3 5 -14
82 -24 169 -17 151 -20 160 -40 160 l-21 0 23 -187 c14 -104 27 -191 31 -194
4 -4 391 41 860 100 l852 105 0 31 c0 16 -9 100 -20 185 -11 85 -20 158 -20
163 0 4 -9 7 -20 7 -11 0 -20 -6 -20 -12z"/>
</g>
</svg>
