<svg xmlns="http://www.w3.org/2000/svg" width="152.594" height="202.081" viewBox="0 0 152.594 202.081">
  <path id="ic_local_mall_24px" d="M138.639,49.114H121.684C121.684,22.555,102.695,1,79.3,1S36.91,22.555,36.91,49.114H19.955c-9.325,0-16.87,8.661-16.87,19.246L3,183.835c0,10.585,7.63,19.246,16.955,19.246H138.639c9.325,0,16.955-8.661,16.955-19.246V68.36C155.594,57.775,147.964,49.114,138.639,49.114ZM79.3,20.246c14.073,0,25.432,12.895,25.432,28.869H53.865C53.865,33.14,65.224,20.246,79.3,20.246Zm0,96.229c-23.4,0-42.387-21.555-42.387-48.114H53.865c0,15.974,11.36,28.869,25.432,28.869s25.432-12.895,25.432-28.869h16.955C121.684,94.92,102.695,116.475,79.3,116.475Z" transform="translate(-3 -1)" fill="#020f5d"/>
</svg>
