<svg xmlns="http://www.w3.org/2000/svg" width="187.758" height="161.54" viewBox="0 0 187.758 161.54">
  <path id="ic_shopping_cart_24px" d="M57.327,131.232c-10.327,0-18.682,7.269-18.682,16.154S47,163.54,57.327,163.54,76.1,156.271,76.1,147.386,67.654,131.232,57.327,131.232ZM1,2V18.154H19.776l33.8,61.3L40.9,99.247A13.96,13.96,0,0,0,38.552,107c0,8.885,8.449,16.154,18.776,16.154H169.982V107H61.27a2.18,2.18,0,0,1-2.347-2.019l.282-.969,8.449-13.166h69.94c7.041,0,13.237-3.312,16.429-8.319l33.609-52.42a7.036,7.036,0,0,0,1.127-3.877c0-4.442-4.225-8.077-9.388-8.077H40.523L31.7,2H1ZM151.206,131.232c-10.327,0-18.682,7.269-18.682,16.154s8.355,16.154,18.682,16.154,18.776-7.269,18.776-16.154S161.533,131.232,151.206,131.232Z" transform="translate(-1 -2)" fill="#020f5d"/>
</svg>
