<svg xmlns="http://www.w3.org/2000/svg" width="172.773" height="183.081" viewBox="0 0 172.773 183.081">
  <path id="ic_receipt_24px" d="M146.978,139.311H31.8V121H146.978Zm0-36.616H31.8V84.386H146.978Zm0-36.616H31.8V47.77H146.978ZM3,185.081,17.4,171.35l14.4,13.731,14.4-13.731,14.4,13.731,14.4-13.731,14.4,13.731,14.4-13.731,14.4,13.731,14.4-13.731,14.4,13.731,14.4-13.731,14.4,13.731V2l-14.4,13.731L146.978,2l-14.4,13.731L118.182,2l-14.4,13.731L89.387,2l-14.4,13.731L60.591,2l-14.4,13.731L31.8,2,17.4,15.731,3,2Z" transform="translate(-3 -2)" fill="#020f5d"/>
</svg>
