<svg xmlns="http://www.w3.org/2000/svg" width="300.879" height="377.527" viewBox="0 0 300.879 377.527">
  <path id="ic_receipt_24px" d="M253.732,285.146H53.146V247.393H253.732Zm0-75.505H53.146V171.887H253.732Zm0-75.505H53.146V96.382H253.732ZM3,379.527l25.073-28.315,25.073,28.315L78.22,351.213l25.073,28.315,25.073-28.315,25.073,28.315,25.073-28.315,25.073,28.315,25.073-28.315,25.073,28.315,25.073-28.315,25.073,28.315V2L278.805,30.315,253.732,2,228.659,30.315,203.586,2,178.513,30.315,153.439,2,128.366,30.315,103.293,2,78.22,30.315,53.146,2,28.073,30.315,3,2Z" transform="translate(-3 -2)" fill="rgba(0,0,0,0.27)"/>
</svg>
