<svg xmlns="http://www.w3.org/2000/svg" width="196.683" height="135" viewBox="0 0 196.683 135">
  <path id="ic_airport_shuttle_24px" d="M144.042,5H18.88C9.046,5,1,13.582,1,24.286v86.786H18.88C18.88,126.982,30.86,140,45.7,140s26.82-13.018,26.82-28.929h49.171c0,15.911,11.98,28.929,26.82,28.929s26.82-13.018,26.82-28.929h22.35V62.857ZM18.88,62.857V24.286h35.76V62.857ZM45.7,125.536c-7.42,0-13.41-6.461-13.41-14.464S38.28,96.607,45.7,96.607s13.41,6.461,13.41,14.464S53.121,125.536,45.7,125.536Zm62.581-62.679H72.521V24.286h35.76Zm40.231,62.679c-7.42,0-13.41-6.461-13.41-14.464s5.99-14.464,13.41-14.464,13.41,6.461,13.41,14.464S155.932,125.536,148.512,125.536Zm-22.35-62.679V24.286h8.94l35.76,38.571Z" transform="translate(-1 -5)" fill="#020f5d"/>
</svg>
